HIERARCHY
ROOT Hips
{
	OFFSET -0.001795 -0.223333 0.028219
	CHANNELS 6 Xposition Yposition Zposition Zrotation Yrotation Xrotation 
	JOINT LeftUpLeg
	{
		OFFSET 0.069520 -0.091406 -0.006815
		CHANNELS 3 Zrotation Yrotation Xrotation
		JOINT LeftLeg
		{
			OFFSET 0.034277 -0.375199 -0.004496
			CHANNELS 3 Zrotation Yrotation Xrotation
			JOINT LeftFoot
			{
				OFFSET -0.013596 -0.397961 -0.043693
				CHANNELS 3 Zrotation Yrotation Xrotation
				JOINT LeftToe
				{
					OFFSET 0.026358 -0.055791 0.119288
					CHANNELS 3 Zrotation Yrotation Xrotation
					End Site
					{
						OFFSET 0.000000 0.000000 0.000000
					}
				}
			}
		}
	}
	JOINT RightUpLeg
	{
		OFFSET -0.067670 -0.090522 -0.004320
		CHANNELS 3 Zrotation Yrotation Xrotation
		JOINT RightLeg
		{
			OFFSET -0.038290 -0.382569 -0.008850
			CHANNELS 3 Zrotation Yrotation Xrotation
			JOINT RightFoot
			{
				OFFSET 0.015774 -0.398415 -0.042312
				CHANNELS 3 Zrotation Yrotation Xrotation
				JOINT RightToe
				{
					OFFSET -0.025372 -0.048144 0.123348
					CHANNELS 3 Zrotation Yrotation Xrotation
					End Site
					{
						OFFSET 0.000000 0.000000 0.000000
					}
				}
			}
		}
	}
	JOINT Spine
	{
		OFFSET -0.002533 0.108963 -0.026696
		CHANNELS 3 Zrotation Yrotation Xrotation
		JOINT Spine1
		{
			OFFSET 0.005487 0.135180 0.001092
			CHANNELS 3 Zrotation Yrotation Xrotation
			JOINT Spine2
			{
				OFFSET 0.001457 0.052922 0.025425
				CHANNELS 3 Zrotation Yrotation Xrotation
				JOINT Neck
				{
					OFFSET -0.002778 0.213870 -0.042857
					CHANNELS 3 Zrotation Yrotation Xrotation
					JOINT Head
					{
						OFFSET 0.005152 0.064970 0.051349
						CHANNELS 3 Zrotation Yrotation Xrotation
						End Site
						{
							OFFSET 0.000000 0.000000 0.000000
						}
					}
				}
				JOINT LeftShoulder
				{
					OFFSET 0.078845 0.121749 -0.034090
					CHANNELS 3 Zrotation Yrotation Xrotation
					JOINT LeftArm
					{
						OFFSET 0.090977 0.030469 -0.008868
						CHANNELS 3 Zrotation Yrotation Xrotation
						JOINT LeftForeArm
						{
							OFFSET 0.259612 -0.012772 -0.027456
							CHANNELS 3 Zrotation Yrotation Xrotation
							JOINT LeftHand
							{
								OFFSET 0.249234 0.008986 -0.001171
								CHANNELS 3 Zrotation Yrotation Xrotation
								End Site
								{
									OFFSET 0.000000 0.000000 0.000000
								}
							}
						}
					}
				}
				JOINT RightShoulder
				{
					OFFSET -0.081759 0.118833 -0.038615
					CHANNELS 3 Zrotation Yrotation Xrotation
					JOINT RightArm
					{
						OFFSET -0.096012 0.032551 -0.009143
						CHANNELS 3 Zrotation Yrotation Xrotation
						JOINT RightForeArm
						{
							OFFSET -0.253742 -0.013329 -0.021401
							CHANNELS 3 Zrotation Yrotation Xrotation
							JOINT RightHand
							{
								OFFSET -0.255298 0.007772 -0.005559
								CHANNELS 3 Zrotation Yrotation Xrotation
								End Site
								{
									OFFSET 0.000000 0.000000 0.000000
								}
							}
						}
					}
				}
			}
		}
	}
}
MOTION
Frames: 9
Frame Time: 0.050000
-0.034335 0.969398 1.365210 3.435996 -2.940574 -6.423913 -6.032602 -1.557184 -10.540238 -0.400839 -0.131003 6.575439 -0.170919 6.294734 20.747409 0.000000 0.000000 0.000000 -0.447651 -0.406572 4.594878 4.592791 0.128084 39.968005 -0.897335 -7.610184 13.907764 0.000000 0.000000 0.000000 -2.033311 -0.354721 22.587702 -3.446708 1.406615 -24.380589 -0.467542 11.351022 21.446106 7.959953 -5.206805 -6.858260 0.000000 0.000000 0.000000 -38.376597 -12.452425 1.462384 -22.652375 2.560200 -2.990086 -5.296797 -25.665855 1.986575 0.000000 0.000000 0.000000 43.512824 6.738947 7.461042 32.486047 0.685609 -5.541627 2.505377 24.995562 1.428589 0.000000 0.000000 0.000000 
-0.029751 0.957687 1.436828 3.916675 -5.095515 -8.772692 -7.807101 -1.074765 -6.084427 0.711628 -0.409793 9.986966 2.265708 8.296271 15.193989 0.000000 0.000000 0.000000 -4.452047 0.166799 -1.532894 7.445334 -0.245583 59.845905 0.915692 -6.044655 19.005267 0.000000 0.000000 0.000000 -1.262674 -0.405012 24.409024 -3.962644 1.496641 -23.360385 -1.498470 10.599538 20.095772 7.710604 -5.042414 -7.296037 0.000000 0.000000 0.000000 -37.780070 -11.124300 1.401260 -23.486254 2.805428 -3.285005 -5.388691 -23.210502 1.822159 0.000000 0.000000 0.000000 43.638309 6.510598 6.005433 33.174866 -0.887255 -5.664314 3.496524 27.680799 1.844020 0.000000 0.000000 0.000000 
-0.026897 0.950837 1.503657 4.589719 -3.445484 -10.758055 -9.478125 -0.569601 -2.443870 0.952395 -0.614684 14.232901 2.460141 8.081128 11.522078 0.000000 0.000000 0.000000 -5.965821 0.524681 -9.687529 8.356750 -1.366805 72.073038 -0.723358 -8.813563 20.495243 0.000000 0.000000 0.000000 -0.222283 -0.703505 25.820846 -3.291599 1.381189 -21.903674 -3.397774 7.659402 20.475066 7.320616 -4.469406 -9.831885 0.000000 0.000000 0.000000 -38.045575 -12.124689 3.134773 -23.912989 2.095869 -3.445693 -5.760432 -22.163854 1.816863 0.000000 0.000000 0.000000 42.767652 7.188804 5.381349 33.457028 -0.504424 -5.380989 3.315640 27.422424 1.756390 0.000000 0.000000 0.000000 
-0.027396 0.958634 1.567796 3.750343 -1.395158 -11.341911 -8.200703 0.245574 2.183411 1.384717 -0.784188 14.218956 -0.610212 3.442935 12.125890 0.000000 0.000000 0.000000 -5.228820 0.961117 -16.908114 6.478752 -0.872591 71.727398 -1.027201 -8.448400 17.295247 0.000000 0.000000 0.000000 2.090496 -1.326111 26.299723 -2.508295 1.236257 -20.898939 -4.052796 4.603607 20.290781 6.390285 -4.084734 -9.241589 0.000000 0.000000 0.000000 -39.262449 -12.907216 4.577479 -23.959462 0.625693 -3.363079 -5.437441 -21.958264 1.746759 0.000000 0.000000 0.000000 41.834181 9.001060 5.819535 33.019961 -1.128497 -5.177012 3.021887 27.223401 1.618162 0.000000 0.000000 0.000000 
-0.031985 0.973338 1.631870 2.176281 0.686379 -10.774715 -5.775542 0.935797 7.042486 2.208845 -0.916568 11.957454 -3.923126 -0.917667 14.058576 0.000000 0.000000 0.000000 -4.509674 1.246566 -20.840385 2.966085 0.641920 57.951611 -0.243314 -6.087783 14.081949 0.000000 0.000000 0.000000 3.491971 -1.689720 25.024916 -1.090408 0.873944 -19.695891 -4.628376 2.987242 20.187563 4.937934 -2.916450 -9.421729 0.000000 0.000000 0.000000 -39.462653 -12.446141 4.339835 -24.694848 -0.680677 -3.262952 -6.046204 -23.355995 1.995720 0.000000 0.000000 0.000000 41.614845 7.759430 4.657817 32.237632 -2.082653 -5.210112 5.080278 26.722836 2.025335 0.000000 0.000000 0.000000 
-0.040071 0.986119 1.698168 1.184300 2.267981 -9.298740 -3.747948 1.353509 11.421822 1.849241 -0.706947 9.246183 -3.842211 -0.335384 14.487572 0.000000 0.000000 0.000000 -3.424934 1.426764 -21.437613 0.809532 0.878009 35.108073 1.353801 -4.529704 18.969938 0.000000 0.000000 0.000000 2.997247 -1.514763 22.431279 0.579470 0.338892 -17.064296 -4.566661 1.063067 18.005176 3.009683 -1.659733 -7.639667 0.000000 0.000000 0.000000 -39.876172 -11.550798 4.007740 -25.792219 -1.672633 -3.194481 -4.381635 -25.067432 1.812545 0.000000 0.000000 0.000000 41.417604 7.888262 4.151321 33.628371 -3.904255 -5.548402 4.154937 25.533748 1.733904 0.000000 0.000000 0.000000 
-0.050845 0.985735 1.768377 1.351944 3.301359 -8.523895 -2.557911 1.583806 14.881332 1.985290 -0.677883 8.196805 -4.560273 -0.666477 15.968194 0.000000 0.000000 0.000000 -2.627747 1.371404 -18.986034 -0.736896 0.695308 14.813927 2.747990 -4.084508 25.711191 0.000000 0.000000 0.000000 2.068586 -1.325221 21.407711 1.938205 -0.034381 -17.975981 -4.678291 -0.031629 18.150275 3.486056 -2.323538 -6.114656 0.000000 0.000000 0.000000 -40.643918 -11.614054 4.356026 -25.561372 -2.279034 -3.114537 -3.303961 -25.150395 1.591854 0.000000 0.000000 0.000000 41.481874 7.805626 3.792281 34.342800 -5.230579 -5.910928 3.766710 23.972315 1.538783 0.000000 0.000000 0.000000 
-0.062880 0.975355 1.841731 2.187164 5.086949 -7.894361 -1.815813 1.623497 16.970357 1.746022 -0.767457 10.160046 -3.772612 0.315562 14.843585 0.000000 0.000000 0.000000 -2.378210 1.089088 -14.983758 -0.974876 0.207811 2.068358 2.211738 -5.520836 29.768266 0.000000 0.000000 0.000000 0.695424 -1.063873 20.127579 3.782141 -0.486846 -19.160071 -4.468932 -0.737579 18.843695 3.586293 -2.347502 -6.751472 0.000000 0.000000 0.000000 -42.407740 -11.259725 3.991293 -23.923213 -2.964484 -2.816496 -2.826487 -25.195382 1.490546 0.000000 0.000000 0.000000 42.747475 6.444737 2.810688 33.950179 -6.137415 -6.133355 3.927234 22.484257 1.468693 0.000000 0.000000 0.000000 
-0.076966 0.961536 1.918112 2.333241 6.273662 -7.665981 -0.213360 1.419768 18.346358 1.784853 -1.187723 15.817818 -3.132256 -0.281692 10.974746 0.000000 0.000000 0.000000 -1.124474 1.104206 -13.220293 -0.446121 0.105493 1.302842 -0.872426 -9.371690 29.685993 0.000000 0.000000 0.000000 0.967430 -1.071725 19.069728 3.065531 -0.181227 -19.873989 -4.257223 -1.677852 18.674115 3.903436 -2.962161 -4.571545 0.000000 0.000000 0.000000 -43.706811 -11.097279 3.952506 -22.152809 -2.702736 -2.652912 -2.331836 -24.979959 1.366212 0.000000 0.000000 0.000000 43.888854 6.702398 2.871866 34.287560 -7.677520 -6.515228 3.606615 20.795790 1.288939 0.000000 0.000000 0.000000 
